<?xml version="1.0" standalone="no"?>
<!DOCTYPE svg PUBLIC "-//W3C//DTD SVG 20010904//EN"
 "http://www.w3.org/TR/2001/REC-SVG-20010904/DTD/svg10.dtd">
<svg version="1.0" xmlns="http://www.w3.org/2000/svg"
 width="120.000000pt" height="120.000000pt" viewBox="0 0 120.000000 120.000000"
 preserveAspectRatio="xMidYMid meet">
<metadata>
Created by potrace 1.14, written by Peter Selinger 2001-2017
</metadata>
<g transform="translate(0.000000,120.000000) scale(0.100000,-0.100000)"
fill="#000000" stroke="none">
<path d="M330 866 c0 -8 5 -18 10 -21 6 -3 10 -17 10 -30 0 -20 -5 -24 -30
-23 -68 2 -102 -80 -65 -152 l15 -30 -54 -27 -55 -26 0 -54 0 -54 85 -55 c46
-30 87 -54 91 -54 4 0 51 25 105 56 82 47 98 60 92 76 -3 10 -1 25 6 33 9 10
7 16 -7 24 -16 9 -16 13 -4 32 7 13 10 24 5 26 -5 2 -23 12 -41 23 l-32 19 15
36 c28 67 -12 131 -78 127 -24 -2 -28 2 -28 23 0 30 -16 65 -30 65 -6 0 -10
-6 -10 -14z m60 -335 l35 -7 -42 -22 c-23 -12 -46 -22 -50 -22 -4 0 -33 16
-63 35 l-55 34 70 -5 c39 -4 86 -10 105 -13z m120 -1 c0 -5 -9 -10 -21 -10
-11 0 -17 5 -14 10 3 6 13 10 21 10 8 0 14 -4 14 -10z m-244 -94 l73 -45 77
45 c51 28 82 40 88 34 12 -12 19 -6 -81 -64 l-82 -48 -81 49 c-44 26 -80 53
-80 60 0 19 6 17 86 -31z"/>
<path d="M860 830 c0 -5 5 -10 10 -10 15 0 13 -143 -2 -158 -9 -9 -4 -12 22
-12 23 0 30 3 22 9 -9 5 -12 24 -10 52 3 39 6 44 28 44 22 0 25 -5 28 -44 2
-28 -1 -47 -10 -52 -8 -6 -1 -9 21 -9 26 0 31 3 23 13 -6 7 -12 35 -14 62 l-3
50 -38 0 c-35 0 -37 2 -37 33 0 25 -4 32 -20 32 -11 0 -20 -4 -20 -10z"/>
<path d="M650 763 c6 -10 16 -38 23 -62 16 -58 33 -62 48 -12 7 23 15 41 19
41 4 0 12 -18 19 -41 15 -50 32 -46 48 12 7 24 17 52 23 62 9 14 6 17 -16 17
-20 0 -24 -4 -20 -17 3 -10 2 -31 -3 -48 l-8 -30 -11 25 c-5 14 -11 34 -13 44
-7 35 -28 28 -40 -13 -7 -23 -16 -41 -21 -41 -8 0 -13 29 -10 63 1 12 -6 17
-23 17 -21 0 -24 -3 -15 -17z"/>
<path d="M663 573 c-14 -5 -18 -33 -5 -33 4 0 13 5 19 11 16 16 43 4 43 -19 0
-10 -9 -27 -20 -37 -20 -18 -27 -45 -12 -45 17 0 52 60 52 89 0 36 -35 52 -77
34z"/>
<path d="M774 563 c-20 -20 -1 -32 21 -13 38 31 61 -22 25 -55 -20 -18 -27
-45 -12 -45 15 0 52 59 52 83 0 46 -52 64 -86 30z"/>
<path d="M894 563 c-13 -13 -14 -18 -3 -22 7 -2 15 1 17 8 6 17 42 13 49 -5 3
-8 -4 -28 -16 -44 -21 -30 -27 -50 -13 -50 12 0 52 65 52 86 0 43 -53 59 -86
27z"/>
<path d="M680 410 c0 -5 5 -10 10 -10 6 0 10 5 10 10 0 6 -4 10 -10 10 -5 0
-10 -4 -10 -10z"/>
<path d="M800 410 c0 -5 5 -10 10 -10 6 0 10 5 10 10 0 6 -4 10 -10 10 -5 0
-10 -4 -10 -10z"/>
<path d="M920 410 c0 -5 5 -10 10 -10 6 0 10 5 10 10 0 6 -4 10 -10 10 -5 0
-10 -4 -10 -10z"/>
</g>
</svg>
